<?xml version="1.0" encoding="UTF-8" standalone="no"?>
<!DOCTYPE svg PUBLIC "-//W3C//DTD SVG 1.1//EN" "http://www.w3.org/Graphics/SVG/1.1/DTD/svg11.dtd">
<svg width="100%" height="100%" viewBox="0 0 410 180" version="1.1" xmlns="http://www.w3.org/2000/svg" xmlns:xlink="http://www.w3.org/1999/xlink" xml:space="preserve" xmlns:serif="http://www.serif.com/" style="fill-rule:evenodd;clip-rule:evenodd;stroke-linecap:round;stroke-linejoin:round;">
    <g transform="matrix(1,0,0,1,-32.9278,-32.1883)">
        <g>
            <path d="M382.701,165.204L383.329,165.669C389.513,170.489 393.311,177.011 393.425,184.759C393.513,190.759 391.398,205.919 369.04,209.329C361.76,210.439 353.906,213.095 343.197,210.902C329.112,208.017 320.636,197.343 319.353,186.365L319.286,185.641L319.286,185.641C307.92,192.653 296.522,192.564 286.992,187.272C277.26,190.796 269.294,188.936 263.719,186.444C250.36,192.36 241.329,189.151 237.027,187.788C228.389,192.343 217.205,197.145 200.458,185.885C190.832,194.356 180.719,193.125 173.124,189.82L172.68,189.61L172.044,190.361C159.163,205.213 141.24,206.772 127.522,194.113C116.784,203.61 105.907,206.469 94.165,202.164C76.495,195.685 68.52,175.068 67.718,158.535C66.38,158.139 49.237,154.095 38.132,132.73C33.449,123.721 32.55,118.14 33.051,104.987C33.413,95.468 37.046,80.636 68.246,56.971C86.248,43.317 104.148,31.852 122.78,42.254C133.636,48.314 139.949,59.997 142.988,68.231C146.521,77.806 147.181,85.6 146.141,95.387C147.425,95.603 148.326,95.569 152.147,97.059C153.582,92.762 152.866,94.911 153.503,93.033C153.877,91.929 158.051,79.51 158.426,78.406C162.592,66.132 166.212,51.982 181.851,48.644C189.066,47.104 198.442,48.419 205.648,55.539C209.051,58.902 211.823,63.792 213.456,69.245L213.6,69.768L214.311,69.932C215.535,70.255 216.795,70.667 218.09,71.178C223.862,73.454 243.582,83.517 232.594,112.321C234.519,112.837 232.513,112.843 238.754,108.531C239.907,107.734 245.045,103.903 253.22,102.268C258.87,101.138 266.071,100.741 276.2,105.052C278.445,100.001 282.576,93.741 292.579,90.635C295.521,86.09 300.073,78.979 306.908,74.591L307.106,74.471L307.168,74.198C307.732,71.896 308.396,69.976 309.024,68.559C316.636,51.394 328.635,44.706 330.777,43.391C366.712,21.341 401.481,38.201 406.619,40.745C408.872,41.86 425.346,49.293 436.502,67.939C439.996,73.779 442.314,79.157 442.401,92.768C442.436,98.197 441.817,105.878 437.109,114.763C430.971,126.347 422.405,134.998 408.801,145.172C398.863,152.603 389.919,157.869 383.681,164.166L382.701,165.204Z" style="fill:rgb(255,153,204);fill-rule:nonzero;"/>
            <path d="M371.034,185.089C371.109,185.968 369.861,186.592 367.294,186.961C366.345,187.066 365.115,187.277 363.638,187.523C362.161,187.805 360.755,188.086 359.384,188.367C353.337,189.598 348.872,189.633 345.989,188.473C343.951,187.523 342.579,186.363 341.947,185.063C341.279,183.727 341.489,182.531 342.544,181.441C344.724,179.684 348.31,178.84 353.302,178.875C358.294,178.945 362.794,179.859 366.837,181.687C369.562,183.076 370.959,184.21 371.034,185.089Z" style="fill-rule:nonzero;stroke:black;stroke-width:0.28px;"/>
            <path d="M109.825,60.955C112.078,61.576 114.187,63.132 116.138,65.637C117.826,67.5 119.302,69.855 120.638,72.738C121.974,75.586 122.959,78.504 123.591,81.527C124.47,85.5 124.4,90.598 123.345,96.75C122.326,102.938 120.005,112.113 116.384,124.277C113.853,132.996 111.779,140.52 110.091,146.813C108.439,153.141 107.63,156.516 107.771,157.008C108.58,157.289 111.357,154.617 116.103,149.027C120.884,143.438 126.158,136.652 131.923,128.637C134.63,124.84 136.74,122.098 138.216,120.375C139.728,118.652 140.959,117.703 141.943,117.527C142.927,117.387 143.947,117.738 145.072,118.617C146.513,119.707 147.779,121.359 148.798,123.574C149.853,125.789 150.486,128.109 150.697,130.57C150.767,131.766 150.802,132.926 150.732,134.086C150.626,135.211 150.416,136.898 149.994,139.078C149.607,141.258 148.974,144.492 148.095,148.781C147.708,150.68 147.357,152.578 147.005,154.512C146.654,156.41 146.408,157.887 146.267,158.906L145.775,162.422L147.251,161.086C148.587,159.785 150.451,157.184 152.841,153.281C155.197,149.379 157.341,145.441 159.24,141.469C161.56,136.617 163.74,131.344 165.884,125.754C167.994,120.129 170.771,112.078 174.251,101.566C174.427,101.109 174.568,100.687 174.708,100.23C176.712,94.254 178.33,89.402 179.63,85.605C180.896,81.809 181.951,78.855 182.724,76.781C183.533,74.672 184.166,73.195 184.658,72.281C185.15,71.367 185.607,70.84 186.029,70.699C186.416,70.523 186.908,70.453 187.47,70.453C189.896,70.453 191.583,72.914 192.462,77.836C192.498,78.047 192.533,78.258 192.568,78.469C192.638,79.031 192.709,79.629 192.673,80.227C192.673,80.789 192.568,81.633 192.322,82.758C192.076,83.848 191.654,85.465 191.056,87.574C190.423,89.719 189.544,92.602 188.455,96.258C187.33,99.914 185.888,104.555 184.13,110.25C183.533,112.148 182.935,114.117 182.267,116.262C176.537,134.578 170.455,149.801 163.951,162C157.447,174.164 152.173,180.246 148.166,180.246C144.685,180.246 141.451,177.328 138.498,171.492C137.689,169.875 137.091,168.539 136.705,167.449C136.318,166.395 136.037,165.129 135.896,163.723C135.72,162.316 135.615,160.313 135.474,157.711L135.087,149.203L133.048,152.297C129.287,157.992 125.244,163.406 120.884,168.574C116.525,173.742 112.869,177.434 109.986,179.613C106.611,182.074 103.306,182.25 100.037,180.211C97.4,178.559 94.869,174.973 92.373,169.418C88.857,161.156 89.349,147.973 93.814,129.832C94.376,127.758 95.291,124.664 96.626,120.48C97.927,116.332 99.369,112.078 100.88,107.719C106.716,90.809 109.494,81.914 109.212,81.07C108.72,80.684 107.209,81.105 104.783,82.301C102.357,83.496 99.474,85.184 96.134,87.363C92.83,89.508 89.595,91.863 86.431,94.359C75.638,103.254 69.451,110.566 67.904,116.297C67.728,117 67.693,117.527 67.763,117.879C67.833,118.23 68.185,118.512 68.748,118.758C69.31,119.004 70.224,119.32 71.56,119.707C78.486,121.711 83.056,123.645 85.201,125.578C87.38,127.477 87.802,129.938 86.537,132.961C85.482,135.246 82.705,136.723 78.169,137.355C74.513,137.707 70.751,136.371 66.955,133.453C63.123,130.5 59.994,126.527 57.533,121.5C56.9,120.164 56.408,119.039 56.091,118.09C55.775,117.141 55.564,116.051 55.494,114.891C55.388,113.73 55.353,112.078 55.353,109.969C55.353,107.824 55.388,106.172 55.459,105.047C55.564,103.887 55.74,102.902 56.056,102.094C56.337,101.25 56.83,100.266 57.462,99.141C60.134,94.5 65.056,89.016 72.123,82.723C79.224,76.43 86.888,70.734 95.185,65.637C100.283,62.297 104.396,60.645 107.525,60.645C108.307,60.645 109.074,60.748 109.825,60.955Z" style="fill-rule:nonzero;stroke:black;stroke-width:0.28px;"/>
            <path d="M291.264,155.308L290.285,156.606C286.569,161.341 283.253,164.399 280.353,165.797C276.486,167.695 272.759,166.887 269.173,163.371C268.611,162.879 268.119,162.246 267.697,161.437C267.24,160.664 266.958,159.961 266.818,159.258C266.677,158.625 266.537,158.063 266.396,157.641C266.255,157.184 266.115,156.973 266.009,156.973C265.939,156.973 265.447,157.324 264.568,158.063C263.689,158.801 262.669,159.715 261.474,160.84C254.689,167.555 248.396,169.172 242.595,165.691C239.842,164.261 237.863,162.447 236.651,160.247L236.276,159.478L234.626,161.215C230.268,165.613 226.546,168.368 223.47,169.488C223.365,169.523 223.259,169.559 223.154,169.594C222.205,169.945 221.466,170.191 220.974,170.297C220.482,170.438 220.025,170.473 219.603,170.402C219.181,170.332 218.619,170.156 217.845,169.91C217.81,169.91 217.74,169.875 217.669,169.875C216.333,169.453 214.962,168.715 213.591,167.73C212.22,166.711 211.271,165.762 210.708,164.777C210.146,163.582 209.935,161.543 210.076,158.59C210.216,155.672 210.673,152.684 211.447,149.555C211.798,148.078 212.115,146.813 212.29,145.758C212.501,144.738 212.572,144.176 212.537,144.07C211.622,143.859 205.822,149.027 195.205,159.574L184.693,169.98L182.197,169.242C181.458,168.996 180.615,168.574 179.665,167.977C178.716,167.344 177.837,166.676 177.064,165.973C175.693,164.742 174.849,163.336 174.533,161.789C174.216,160.242 174.533,157.852 175.412,154.688C176.326,151.523 177.908,146.883 180.158,140.836C181.564,137.109 183.357,132.68 185.537,127.582C187.716,122.484 189.861,117.703 191.935,113.238C194.009,108.773 195.591,105.645 196.646,103.781C198.474,100.793 200.232,98.156 201.99,95.871C203.712,93.586 204.943,92.285 205.681,91.969C207.755,91.16 209.794,91.582 211.869,93.164C212.853,93.938 213.451,94.852 213.662,95.941C213.872,97.066 213.626,98.684 212.958,100.828C212.255,102.938 211.095,105.926 209.408,109.793C207.65,113.906 205.857,118.09 204.029,122.344C202.236,126.633 200.689,130.289 199.423,133.348C198.158,136.371 197.56,137.953 197.56,138.059C197.56,138.129 198.017,137.813 199.001,137.145C199.951,136.441 201.146,135.563 202.587,134.508C208.423,130.078 213.134,128.355 216.65,129.34C218.232,129.832 219.919,130.711 221.783,132.012C223.611,133.348 224.876,134.543 225.544,135.633C227.302,139.254 225.931,146.285 221.431,156.727C221.009,157.676 220.728,158.484 220.552,159.117C220.412,159.75 220.376,160.066 220.552,160.066C221.044,160.066 222.732,158.906 225.65,156.586C228.533,154.301 231.732,151.559 235.212,148.395L236.597,147.151L236.882,146.324C238.201,142.807 240.152,139.28 242.736,135.773C246.181,131.098 249.802,127.723 253.564,125.648C257.853,123.504 262.247,123.398 266.677,125.332C268.822,126.316 270.615,127.547 272.056,129.023C273.497,130.5 274.13,131.766 273.955,132.785C273.779,133.348 273.849,133.84 274.165,134.262C274.447,134.648 275.079,135.105 275.994,135.598C276.662,135.984 277.365,136.441 278.033,137.004C278.665,137.566 279.193,138.094 279.509,138.586C279.861,139.078 280.072,139.57 280.142,140.027C280.212,140.52 280.072,141.188 279.79,142.137C279.474,143.086 278.947,144.457 278.173,146.355C274.165,156.691 273.146,161.859 275.15,161.859C276.802,161.859 281.267,158.027 288.544,150.293C289.195,149.599 289.803,148.959 290.37,148.375L291.371,147.363L291.392,147.234C292.13,143.402 294.064,137.918 297.263,130.816C297.404,130.5 297.544,130.148 297.685,129.832C298.915,127.055 299.865,124.875 300.497,123.328C301.165,121.781 301.587,120.656 301.763,119.988C301.974,119.285 301.939,118.898 301.763,118.758C301.587,118.617 301.236,118.547 300.779,118.582L300.568,118.582C299.302,118.582 298.282,118.125 297.579,117.176C296.876,116.262 296.595,115.277 296.7,114.293C296.841,113.273 297.474,112.57 298.634,112.184C299.161,112.078 299.865,111.938 300.708,111.867C301.587,111.762 302.431,111.691 303.275,111.656C304.154,111.656 304.857,111.551 305.349,111.375C305.876,111.199 306.369,110.742 306.896,110.004C307.423,109.301 308.161,108.105 309.076,106.488C311.115,103.078 313.048,100.195 314.841,97.805C316.669,95.379 318.04,93.902 318.989,93.375C320.747,92.531 322.505,93.762 324.228,97.066C324.966,98.367 325.247,99.703 325.142,101.109C325.001,102.48 324.439,104.133 323.454,106.066C322.927,107.086 322.54,107.965 322.259,108.668C321.978,109.406 321.872,109.828 321.943,109.934C322.083,110.039 322.54,110.145 323.314,110.285C324.122,110.426 325.071,110.566 326.161,110.707C328.165,110.918 329.712,111.375 330.802,112.043C331.892,112.746 332.314,113.555 332.103,114.434C331.786,114.996 330.521,115.594 328.341,116.227C326.161,116.859 323.736,117.352 321.099,117.668L317.372,118.09L312.943,127.23C310.517,132.398 308.197,137.848 305.912,143.578C303.661,149.309 302.22,153.527 301.552,156.27C301.2,157.605 301.095,158.414 301.2,158.695C301.341,159.012 301.798,159.152 302.677,159.152C305.7,159.152 310.728,155.32 317.724,147.656C319.552,145.688 321.134,144 322.505,142.629C323.841,141.258 324.685,140.52 324.966,140.379C325.177,140.344 325.388,140.414 325.634,140.59C325.88,140.766 326.091,141.047 326.197,141.363C326.337,141.961 325.88,143.332 324.79,145.477C323.7,147.586 322.294,149.941 320.571,152.543C318.884,155.145 317.197,157.43 315.509,159.434C308.97,166.852 303.415,169.805 298.845,168.258C297.685,167.66 296.384,166.395 295.048,164.391C293.677,162.422 292.658,160.348 291.989,158.203C291.699,157.333 291.471,156.452 291.303,155.56L291.264,155.308ZM250.435,156.656C250.435,157.078 251.138,156.621 252.509,155.285C253.88,153.949 255.533,152.191 257.396,150.047C259.294,147.867 261.087,145.652 262.775,143.402C264.251,141.469 265.412,139.781 266.326,138.41C267.24,137.039 267.626,136.266 267.556,136.125C267.169,135.914 266.115,136.688 264.392,138.445C262.634,140.203 260.701,142.383 258.556,144.949C256.412,147.516 254.513,149.941 252.896,152.262C251.279,154.547 250.435,156.023 250.435,156.656Z" style="fill-rule:nonzero;stroke:black;stroke-width:0.28px;"/>
            <path d="M396.663,126.286C393.38,128.777 389.566,131.52 385.224,134.508C366.415,147.234 357.169,158.238 357.451,167.449C357.415,171.035 356.818,172.758 355.693,172.582C355.622,172.582 355.306,172.512 354.814,172.336C354.286,172.195 353.689,171.984 353.056,171.738C350.7,170.859 348.38,169.594 346.06,167.871C343.74,166.184 342.017,164.461 340.892,162.773C340.259,161.824 339.802,161.016 339.521,160.348C339.24,159.68 339.064,158.941 339.029,158.098C338.993,157.219 339.029,156.023 339.134,154.441C339.204,152.367 339.415,150.75 339.732,149.59C340.083,148.43 340.681,147.129 341.56,145.723C345.849,138.27 355.447,129.621 370.353,119.777C380.161,113.344 386.912,107.613 390.673,102.586C394.435,97.559 396.263,91.758 396.158,85.148C396.228,82.652 396.158,80.754 395.947,79.488C395.736,78.223 395.244,76.852 394.47,75.305C393.732,73.652 393.099,72.527 392.536,71.965C391.939,71.402 391.06,70.98 389.794,70.699C387.826,70.207 384.978,70.102 381.251,70.348C377.56,70.629 373.869,71.191 370.212,72.105C356.537,75.973 348.626,83.391 346.552,94.395C346.2,96.82 346.306,98.859 346.833,100.547C347.396,102.234 348.486,103.957 350.173,105.715C353.759,109.371 353.267,110.777 348.732,109.969C345.181,109.336 341.7,107.754 338.22,105.188C334.74,102.656 332.173,99.703 330.486,96.434C329.22,93.797 328.517,90.738 328.271,87.258C328.025,83.777 328.341,80.789 329.22,78.258C330.099,76.043 331.47,73.652 333.333,71.051C335.197,68.414 336.989,66.41 338.677,65.004C352.001,55.336 367.294,52.418 384.591,56.215C400.201,60.609 411.275,68.695 417.884,80.438C418.587,81.703 419.079,83.039 419.361,84.41C419.642,85.746 419.853,87.715 419.923,90.281C420.134,93.938 419.923,96.996 419.255,99.422C418.622,101.883 417.357,104.555 415.423,107.402C412.857,111.551 409.341,115.629 404.912,119.566C402.697,121.553 399.946,123.794 396.663,126.286Z" style="fill-rule:nonzero;stroke:black;stroke-width:0.28px;"/>
        </g>
    </g>
</svg>
