<?xml version="1.0" encoding="UTF-8" standalone="no"?>
<!DOCTYPE svg PUBLIC "-//W3C//DTD SVG 1.1//EN" "http://www.w3.org/Graphics/SVG/1.1/DTD/svg11.dtd">
<svg width="100%" height="100%" viewBox="0 0 429 180" version="1.1" xmlns="http://www.w3.org/2000/svg" xmlns:xlink="http://www.w3.org/1999/xlink" xml:space="preserve" xmlns:serif="http://www.serif.com/" style="fill-rule:evenodd;clip-rule:evenodd;stroke-linecap:round;stroke-linejoin:round;">
    <g transform="matrix(1,0,0,1,-101.449,-42.8394)">
        <g>
            <path d="M282.31,80.445L282.386,80.459C290.737,82.248 296.528,87.564 299.368,91.262C309.252,104.136 302.873,118.795 301.724,121.86C325.481,99.478 347.778,116.093 348.832,116.79C365.686,108.984 379.215,118.85 381.542,120.369C388.604,118.951 394.971,120.165 400.151,122.255L401.744,122.955L400.431,121.022C389.933,104.596 393.614,86.203 396.711,79.219C401.849,67.632 411.968,53.579 435.525,46.244C456.809,39.617 478.089,43.376 494.306,51.405C513.177,60.749 527.957,77.864 529.696,95.326C530.986,108.285 530.877,126.54 506.445,147.865C490.444,161.831 478.82,166.716 470.746,175.399L470.378,175.823L471.599,176.739C479.429,183.067 481.044,190.833 481.112,195.417C481.171,199.417 480.454,216.371 456.726,219.99C449.146,221.145 432.683,226.322 418.576,216.167C411.893,211.357 408.228,204.84 407.175,198.281L407.07,197.445L405.267,198.147C404.577,198.388 403.862,198.612 403.12,198.818C391.111,202.152 381.166,197.496 376.954,194.917C363.153,204.303 349.632,198.195 342.817,194.531C331.417,200.916 319.28,202.907 306.245,198.13C289.49,207.712 278.059,202.529 269.16,196.545C260.141,204.483 250.042,204.102 241.587,200.395L241.328,200.274L240.942,200.754C235.633,207.042 230.647,210.208 225.278,211.942C218.697,214.068 207.269,214.966 196.224,204.773C173.766,224.636 155.106,209.774 149.711,203.78C136.162,188.724 136.452,169.853 136.42,169.195C135.751,168.997 118.099,165.065 106.834,143.391C99.288,128.874 100.308,110.815 105.968,100.091C112.856,87.04 128.209,74.26 136.948,67.632C147.759,59.432 158.159,52.995 165.464,50.658C179.062,46.309 188.543,51.274 191.482,52.914C199.656,57.477 207.131,66.541 211.689,78.892C215.139,88.239 215.908,96.019 214.842,106.048C215.771,106.204 216.847,106.159 220.849,107.72C222.284,103.422 221.368,106.161 222.205,103.694C222.249,103.564 227.082,89.199 227.126,89.069C230.265,79.823 234.09,62.819 250.554,59.305C262.506,56.753 270.981,62.872 274.349,66.199C277.854,69.663 280.602,74.617 282.203,80.049L282.31,80.445Z" style="fill:rgb(255,153,204);fill-rule:nonzero;"/>
            <path d="M458.721,195.75C458.795,196.628 457.547,197.252 454.98,197.622C454.031,197.727 452.801,197.938 451.324,198.184C449.848,198.465 448.442,198.747 447.07,199.028C441.024,200.258 436.559,200.293 433.676,199.133C431.637,198.184 430.266,197.024 429.633,195.723C428.965,194.387 429.176,193.192 430.231,192.102C432.41,190.344 435.996,189.5 440.988,189.536C445.98,189.606 450.481,190.52 454.524,192.348C457.248,193.737 458.646,194.871 458.721,195.75Z" style="fill-rule:nonzero;stroke:black;stroke-width:0.28px;"/>
            <path d="M484.349,136.946C481.067,139.438 477.252,142.18 472.91,145.168C454.102,157.895 444.856,168.899 445.137,178.11C445.102,181.696 444.504,183.418 443.379,183.243C443.309,183.243 442.992,183.172 442.5,182.997C441.973,182.856 441.375,182.645 440.742,182.399C438.387,181.52 436.067,180.254 433.746,178.532C431.426,176.844 429.703,175.122 428.578,173.434C427.946,172.485 427.488,171.676 427.207,171.008C426.926,170.34 426.75,169.602 426.715,168.758C426.68,167.879 426.715,166.684 426.821,165.102C426.891,163.028 427.102,161.411 427.418,160.251C427.77,159.09 428.367,157.79 429.246,156.383C433.535,148.93 443.133,140.282 458.039,130.438C467.848,124.004 474.598,118.274 478.359,113.247C482.121,108.219 483.949,102.418 483.844,95.809C483.914,93.313 483.844,91.415 483.633,90.149C483.422,88.883 482.93,87.512 482.157,85.965C481.418,84.313 480.785,83.188 480.223,82.625C479.625,82.063 478.746,81.641 477.48,81.36C475.512,80.868 472.664,80.762 468.938,81.008C465.246,81.29 461.555,81.852 457.899,82.766C444.223,86.633 436.313,94.051 434.239,105.055C433.887,107.481 433.992,109.52 434.52,111.208C435.082,112.895 436.172,114.618 437.859,116.376C441.445,120.032 440.953,121.438 436.418,120.629C432.867,119.997 429.387,118.415 425.906,115.848C422.426,113.317 419.859,110.364 418.172,107.094C416.906,104.458 416.203,101.399 415.957,97.918C415.711,94.438 416.028,91.45 416.906,88.918C417.785,86.704 419.157,84.313 421.02,81.711C422.883,79.075 424.676,77.071 426.363,75.665C439.688,65.997 454.98,63.079 472.277,66.875C487.887,71.27 498.961,79.356 505.57,91.098C506.274,92.364 506.766,93.7 507.047,95.071C507.328,96.407 507.539,98.376 507.61,100.942C507.821,104.598 507.61,107.657 506.942,110.083C506.309,112.543 505.043,115.215 503.11,118.063C500.543,122.211 497.028,126.29 492.598,130.227C490.383,132.213 487.632,134.455 484.349,136.946Z" style="fill-rule:nonzero;stroke:black;stroke-width:0.28px;"/>
            <path d="M396.518,166.261C396.522,166.333 396.533,166.368 396.551,166.368C396.621,166.368 397.359,165.77 398.766,164.504C400.172,163.239 401.859,161.727 403.863,159.899C405.797,158.071 407.485,156.524 408.891,155.293C410.297,154.028 411.106,153.36 411.316,153.254C411.492,153.184 411.739,153.254 412.09,153.395C412.406,153.536 412.758,153.747 413.11,153.993C413.531,154.274 413.777,154.555 413.883,154.801C413.988,155.047 413.918,155.399 413.672,155.891C413.426,156.348 412.934,157.086 412.266,158.036C411.668,158.95 410.754,160.356 409.559,162.219C408.328,164.083 407.098,165.981 405.867,167.95C404.637,169.883 403.406,171.641 402.211,173.188C401.016,174.735 400.137,175.719 399.574,176.176C397.078,177.723 394.266,178.004 391.102,176.95C387.938,175.86 385.617,173.891 384.141,171.008C382.664,167.458 382.453,163.133 383.543,158.071C383.719,157.192 383.859,156.454 383.965,155.821C384.035,155.188 384.07,154.836 384,154.766C383.719,154.661 382.77,155.434 381.082,157.016C379.43,158.633 377.567,160.567 375.528,162.852C373.453,165.137 371.695,167.247 370.184,169.145C368.918,170.833 367.758,172.309 366.668,173.68C365.578,175.016 364.875,175.895 364.488,176.282C362.942,177.723 360.516,177.829 357.141,176.633C354.926,175.79 352.852,174.559 350.988,172.977C349.16,171.395 347.824,169.743 346.981,167.985C346.611,167.08 346.326,166.13 346.123,165.138L345.951,164.055L343.393,166.241C341.727,167.638 339.818,169.215 337.664,170.973C329.051,178.004 321.07,180.043 313.723,177.02C311.649,175.965 310.067,174.875 308.871,173.715C307.711,172.52 306.762,171.043 306.024,169.25L305.966,169.097L303.328,171.876C298.97,176.274 295.248,179.028 292.172,180.149C292.067,180.184 291.961,180.219 291.856,180.254C290.906,180.606 290.168,180.852 289.676,180.958C289.184,181.098 288.727,181.133 288.305,181.063C287.883,180.993 287.321,180.817 286.547,180.571C286.512,180.571 286.442,180.536 286.371,180.536C285.035,180.114 283.664,179.375 282.293,178.391C280.922,177.372 279.973,176.422 279.41,175.438C278.848,174.243 278.637,172.204 278.778,169.25C278.918,166.333 279.375,163.344 280.149,160.215C280.5,158.739 280.817,157.473 280.992,156.418C281.203,155.399 281.274,154.836 281.238,154.731C280.324,154.52 274.524,159.688 263.906,170.235L253.395,180.641L250.899,179.903C250.16,179.657 249.317,179.235 248.367,178.637C247.418,178.004 246.539,177.336 245.766,176.633C244.395,175.403 243.551,173.997 243.235,172.45C242.918,170.903 243.235,168.512 244.113,165.348C245.028,162.184 246.61,157.543 248.86,151.497C250.266,147.77 252.059,143.34 254.238,138.243C256.418,133.145 258.563,128.364 260.637,123.899C262.711,119.434 264.293,116.305 265.348,114.442C267.176,111.454 268.934,108.817 270.692,106.532C272.414,104.247 273.645,102.946 274.383,102.629C276.457,101.821 278.496,102.243 280.57,103.825C281.555,104.598 282.153,105.512 282.363,106.602C282.574,107.727 282.328,109.344 281.66,111.489C280.957,113.598 279.797,116.586 278.11,120.454C276.352,124.567 274.559,128.75 272.731,133.004C270.938,137.293 269.391,140.95 268.125,144.008C266.86,147.032 266.262,148.614 266.262,148.719C266.262,148.79 266.719,148.473 267.703,147.805C268.653,147.102 269.848,146.223 271.289,145.168C277.125,140.739 281.836,139.016 285.352,140.001C286.934,140.493 288.621,141.372 290.485,142.672C292.313,144.008 293.578,145.204 294.246,146.293C296.004,149.915 294.633,156.946 290.133,167.387C289.711,168.336 289.43,169.145 289.254,169.778C289.113,170.411 289.078,170.727 289.254,170.727C289.746,170.727 291.434,169.567 294.352,167.247C297.234,164.961 300.434,162.219 303.914,159.055L305.425,157.698L305.677,156.607C305.858,155.933 306.067,155.25 306.305,154.555C308.203,149 311.578,143.762 316.43,138.805C322.336,132.723 328.207,131.106 334.008,133.989C339.598,136.801 342.059,141.09 341.391,146.891C340.793,150.301 339.246,153.676 336.785,157.051C334.324,160.461 331.582,162.922 328.559,164.469C325.113,166.016 321.563,166.368 317.836,165.524L315.797,164.997L315.973,168.899C316.043,170.129 316.113,171.008 316.184,171.571C316.289,172.133 316.43,172.52 316.676,172.696C316.922,172.872 317.274,172.977 317.731,173.012C320.051,173.153 323.285,172.133 327.469,169.883C331.688,167.668 336.223,164.715 341.145,161.024C342.375,160.101 343.471,159.288 344.434,158.585L346.076,157.409L346.15,156.888C346.254,156.285 346.379,155.671 346.524,155.047C347.684,150.055 349.898,145.52 353.168,141.372C357.035,136.485 361.395,135.114 366.246,137.258C369.797,139.051 371.59,141.09 371.59,143.411C371.59,143.938 371.379,144.958 370.992,146.434C370.57,147.911 370.078,149.458 369.481,151.11C368.918,152.727 368.391,154.133 368.004,155.364C367.582,156.594 367.371,157.262 367.371,157.403C367.371,157.543 367.899,157.122 368.953,156.137C369.973,155.153 371.274,153.887 372.785,152.27C377.531,147.243 381.293,144.114 384.106,142.918C386.918,141.688 389.836,141.934 392.93,143.586C395.988,144.958 397.852,146.751 398.449,149.036C399.082,151.286 398.766,155.047 397.57,160.286C397.184,162.008 396.903,163.45 396.692,164.61C396.56,165.506 396.507,166.047 396.518,166.261ZM318.721,156.905C318.735,157.073 318.816,157.157 318.961,157.157C319.137,157.157 319.664,156.805 320.508,156.137C321.316,155.469 322.266,154.625 323.321,153.641C325.711,151.286 327.574,148.86 328.84,146.293C331.195,141.583 330.985,140.387 328.277,142.672C327.328,143.481 326.274,144.676 325.078,146.223C323.883,147.77 322.723,149.387 321.668,151.04C320.578,152.727 319.77,154.133 319.207,155.364C318.856,156.111 318.696,156.624 318.721,156.905Z" style="fill-rule:nonzero;stroke:black;stroke-width:0.28px;"/>
            <path d="M178.527,71.616C180.779,72.237 182.889,73.792 184.84,76.297C186.528,78.161 188.004,80.516 189.34,83.399C190.676,86.247 191.66,89.165 192.293,92.188C193.172,96.161 193.102,101.258 192.047,107.411C191.028,113.598 188.707,122.774 185.086,134.938C182.555,143.657 180.481,151.18 178.793,157.473C177.141,163.801 176.332,167.176 176.473,167.668C177.281,167.95 180.059,165.278 184.805,159.688C189.586,154.098 194.86,147.313 200.625,139.297C203.332,135.501 205.442,132.758 206.918,131.036C208.43,129.313 209.66,128.364 210.645,128.188C211.629,128.047 212.649,128.399 213.774,129.278C215.215,130.368 216.481,132.02 217.5,134.235C218.555,136.45 219.188,138.77 219.399,141.231C219.469,142.426 219.504,143.586 219.434,144.747C219.328,145.872 219.117,147.559 218.695,149.739C218.309,151.918 217.676,155.153 216.797,159.442C216.41,161.34 216.059,163.239 215.707,165.172C215.356,167.071 215.11,168.547 214.969,169.567L214.477,173.083L215.953,171.747C217.289,170.446 219.153,167.844 221.543,163.942C223.899,160.04 226.043,156.102 227.942,152.129C230.262,147.278 232.442,142.004 234.586,136.415C236.695,130.79 239.473,122.739 242.953,112.227C243.129,111.77 243.27,111.348 243.41,110.891C245.414,104.915 247.031,100.063 248.332,96.266C249.598,92.469 250.653,89.516 251.426,87.442C252.235,85.333 252.867,83.856 253.36,82.942C253.852,82.028 254.309,81.5 254.731,81.36C255.117,81.184 255.61,81.114 256.172,81.114C258.598,81.114 260.285,83.575 261.164,88.497C261.199,88.708 261.235,88.918 261.27,89.129C261.34,89.692 261.41,90.29 261.375,90.887C261.375,91.45 261.27,92.293 261.024,93.418C260.778,94.508 260.356,96.125 259.758,98.235C259.125,100.379 258.246,103.262 257.156,106.918C256.031,110.575 254.59,115.215 252.832,120.911C252.235,122.809 251.637,124.778 250.969,126.922C245.238,145.239 239.156,160.461 232.652,172.661C226.149,184.825 220.875,190.907 216.867,190.907C213.387,190.907 210.152,187.989 207.199,182.153C206.391,180.536 205.793,179.2 205.406,178.11C205.02,177.055 204.738,175.79 204.598,174.383C204.422,172.977 204.317,170.973 204.176,168.372L203.789,159.864L201.75,162.958C197.988,168.653 193.945,174.067 189.586,179.235C185.227,184.403 181.57,188.094 178.688,190.274C175.313,192.735 172.008,192.911 168.738,190.872C166.102,189.219 163.57,185.633 161.074,180.079C157.559,171.817 158.051,158.633 162.516,140.493C163.078,138.418 163.992,135.325 165.328,131.141C166.629,126.993 168.07,122.739 169.582,118.379C175.418,101.469 178.195,92.575 177.914,91.731C177.422,91.344 175.91,91.766 173.485,92.961C171.059,94.157 168.176,95.844 164.836,98.024C161.531,100.168 158.297,102.524 155.133,105.02C144.34,113.915 138.153,121.227 136.606,126.958C136.43,127.661 136.395,128.188 136.465,128.54C136.535,128.891 136.887,129.172 137.449,129.418C138.012,129.665 138.926,129.981 140.262,130.368C147.188,132.372 151.758,134.305 153.902,136.239C156.082,138.137 156.504,140.598 155.238,143.622C154.184,145.907 151.406,147.383 146.871,148.016C143.215,148.368 139.453,147.032 135.656,144.114C131.824,141.161 128.695,137.188 126.235,132.161C125.602,130.825 125.11,129.7 124.793,128.751C124.477,127.801 124.266,126.711 124.195,125.551C124.09,124.391 124.055,122.739 124.055,120.629C124.055,118.485 124.09,116.833 124.16,115.708C124.266,114.547 124.442,113.563 124.758,112.754C125.039,111.911 125.531,110.926 126.164,109.801C128.836,105.161 133.758,99.676 140.824,93.383C147.926,87.09 155.59,81.395 163.887,76.297C168.985,72.958 173.098,71.305 176.227,71.305C177.009,71.305 177.776,71.408 178.527,71.616Z" style="fill-rule:nonzero;stroke:black;stroke-width:0.28px;"/>
        </g>
    </g>
</svg>
