<?xml version="1.0" encoding="UTF-8" standalone="no"?>
<!DOCTYPE svg PUBLIC "-//W3C//DTD SVG 1.1//EN" "http://www.w3.org/Graphics/SVG/1.1/DTD/svg11.dtd">
<svg width="100%" height="100%" viewBox="0 0 449 180" version="1.1" xmlns="http://www.w3.org/2000/svg" xmlns:xlink="http://www.w3.org/1999/xlink" xml:space="preserve" xmlns:serif="http://www.serif.com/" style="fill-rule:evenodd;clip-rule:evenodd;stroke-linecap:round;stroke-linejoin:round;">
    <g transform="matrix(1,0,0,1,-125.2,-116.113)">
        <g>
            <path d="M305.977,153.942L306.862,154.139C312.371,155.514 318.444,158.693 323.058,164.702C332.942,177.576 326.564,192.235 325.414,195.3C339.562,181.971 355.177,180.637 369.497,188.348C384.33,181.129 395.743,187.783 402.447,196.943C403.409,197.335 404.203,197.689 404.889,198.027L405.188,198.181L406.667,196.606C416.072,186.963 426.879,183.154 436.907,183.723L439.046,183.917L439.005,183.793C434.94,170.53 437.941,157.898 440.264,152.66C443.381,145.632 449.416,135.224 462.017,127.492C493.352,108.264 524.258,118.111 537.859,124.845C554.933,133.299 571.361,149.807 573.249,168.765C574.869,185.027 572.315,201.827 549.999,221.305C533.41,235.783 522.227,240.284 514.272,248.863L513.916,249.273L514.117,249.416C520.466,254.156 524.544,260.711 524.665,268.857C524.729,273.164 524.008,289.811 500.28,293.429C493.541,294.457 476.513,299.961 462.13,289.607C454.232,283.922 450.548,275.854 450.41,268.149L450.428,267.144L449.245,267.869C443.498,271.23 437.219,273.574 429.689,274.119C423.763,274.548 411.445,274.085 400.317,263.938C399.15,262.874 398.085,261.754 397.115,260.59L396.249,259.477L396.144,259.65C392.567,265.714 392.29,268.338 386.66,272.87C377.785,280.014 365.451,279.992 355.777,272.531C350.812,273.977 341.698,275.88 329.936,271.57C311.318,282.217 299.011,274.128 292.85,269.985C283.831,277.922 273.733,277.542 265.277,273.835L265.045,273.726L264.436,274.462C260.831,278.619 253.807,285.493 243.397,286.573C236.565,287.282 228.137,285.801 219.914,278.213C198.076,297.528 179.626,284.136 173.402,277.22C159.853,262.164 160.142,243.293 160.11,242.635C148.637,239.242 140.946,232.175 135.577,224.944C124.71,210.306 125.407,199.267 125.369,195.84C125.267,186.418 124.929,178.136 135.423,164.812C144.09,153.808 156.837,143.955 160.638,141.072C178.64,127.418 196.54,115.953 215.173,126.354C227.561,133.27 233.455,147.117 235.38,152.332C239.208,162.705 239.457,170.788 238.533,179.487C239.489,179.648 240.538,179.599 244.539,181.16C245.975,176.86 245.076,179.547 245.895,177.132C245.984,176.872 250.729,162.767 250.817,162.508C253.04,155.959 255.681,147.94 258.749,143.336C262.153,138.226 266.269,135.803 268.637,134.656C272.253,132.905 275.553,132.435 277.454,132.276C281.172,131.964 283.987,132.393 286.172,132.945C292.447,134.528 301.731,139.514 305.71,153.002L305.977,153.942Z" style="fill:rgb(255,153,204);fill-rule:nonzero;stroke:rgb(255,153,204);stroke-width:0.28px;"/>
            <path d="M502.274,269.189C502.349,270.068 501.1,270.692 498.534,271.061C497.585,271.167 496.354,271.378 494.878,271.624C493.401,271.905 491.995,272.186 490.624,272.468C484.577,273.698 480.112,273.733 477.23,272.573C475.19,271.624 473.82,270.464 473.187,269.163C472.518,267.827 472.73,266.632 473.784,265.542C475.964,263.784 479.55,262.94 484.542,262.975C489.534,263.046 494.034,263.96 498.077,265.788C500.802,267.177 502.199,268.31 502.274,269.189Z" style="fill-rule:nonzero;stroke:black;stroke-width:0.28px;"/>
            <path d="M527.903,210.386C524.62,212.878 520.805,215.62 516.464,218.608C497.655,231.335 488.409,242.339 488.69,251.55C488.655,255.136 488.058,256.858 486.933,256.683C486.862,256.683 486.546,256.612 486.054,256.436C485.526,256.296 484.929,256.085 484.296,255.839C481.941,254.96 479.62,253.694 477.3,251.972C474.979,250.284 473.257,248.561 472.132,246.874C471.499,245.925 471.042,245.116 470.761,244.448C470.479,243.78 470.304,243.042 470.269,242.198C470.233,241.319 470.269,240.124 470.374,238.542C470.444,236.468 470.655,234.851 470.972,233.69C471.323,232.53 471.921,231.229 472.8,229.823C477.089,222.37 486.687,213.722 501.593,203.878C511.401,197.444 518.151,191.714 521.913,186.686C525.675,181.659 527.503,175.858 527.397,169.249C527.468,166.753 527.397,164.854 527.187,163.589C526.975,162.323 526.483,160.952 525.71,159.405C524.972,157.753 524.339,156.628 523.776,156.065C523.179,155.503 522.3,155.081 521.034,154.8C519.065,154.308 516.218,154.202 512.491,154.448C508.8,154.729 505.108,155.292 501.452,156.206C487.776,160.073 479.866,167.491 477.792,178.495C477.441,180.921 477.546,182.96 478.073,184.647C478.636,186.335 479.726,188.058 481.413,189.815C484.999,193.472 484.507,194.878 479.972,194.069C476.421,193.436 472.941,191.854 469.46,189.288C465.979,186.757 463.413,183.804 461.726,180.534C460.46,177.897 459.757,174.839 459.511,171.358C459.265,167.878 459.581,164.89 460.46,162.358C461.339,160.143 462.71,157.753 464.573,155.151C466.436,152.515 468.23,150.511 469.917,149.104C483.241,139.436 498.534,136.518 515.831,140.315C531.441,144.71 542.515,152.796 549.124,164.538C549.827,165.804 550.319,167.14 550.601,168.511C550.882,169.847 551.093,171.815 551.163,174.382C551.374,178.038 551.163,181.097 550.495,183.522C549.862,185.983 548.597,188.655 546.663,191.503C544.097,195.651 540.581,199.729 536.151,203.667C533.936,205.653 531.185,207.894 527.903,210.386Z" style="fill-rule:nonzero;stroke:black;stroke-width:0.28px;"/>
            <path d="M421.38,250.968C420.916,250.818 420.454,250.649 419.995,250.46C417.921,249.405 416.339,248.315 415.143,247.155C413.983,245.96 413.034,244.483 412.296,242.69C410.573,238.436 410.679,233.55 412.577,227.995C414.476,222.44 417.851,217.202 422.702,212.245C428.608,206.163 434.479,204.546 440.28,207.429C445.87,210.241 448.331,214.53 447.663,220.331C447.066,223.741 445.518,227.116 443.058,230.491C440.597,233.901 437.855,236.362 434.831,237.909C431.386,239.456 427.835,239.808 424.108,238.964L422.069,238.436L422.245,242.339C422.315,243.569 422.386,244.448 422.456,245.011C422.561,245.573 422.702,245.96 422.948,246.136C423.194,246.311 423.546,246.417 424.003,246.452C426.323,246.593 429.558,245.573 433.741,243.323C437.96,241.108 442.495,238.155 447.417,234.464C452.339,230.772 455.116,228.839 455.749,228.663C456.382,228.522 456.979,228.593 457.507,228.909C457.929,229.12 458.28,229.331 458.561,229.507C458.878,229.647 459.054,229.788 459.124,229.823C459.265,230.069 458.913,230.772 458.105,232.003C457.261,233.233 452.55,237.382 443.936,244.413C435.862,251.005 428.343,253.209 421.38,250.968ZM424.993,230.344C425.007,230.513 425.088,230.597 425.233,230.597C425.409,230.597 425.936,230.245 426.78,229.577C427.589,228.909 428.538,228.065 429.593,227.081C431.983,224.726 433.847,222.3 435.112,219.733C437.468,215.022 437.257,213.827 434.55,216.112C433.601,216.921 432.546,218.116 431.351,219.663C430.155,221.21 428.995,222.827 427.941,224.479C426.851,226.167 426.042,227.573 425.479,228.804C425.128,229.551 424.969,230.064 424.993,230.344Z" style="fill-rule:nonzero;stroke:black;stroke-width:0.28px;"/>
            <path d="M365.732,240.797L361.354,244.413C352.741,251.444 344.761,253.483 337.413,250.46C335.339,249.405 333.757,248.315 332.561,247.155C331.401,245.96 330.452,244.483 329.714,242.69L329.656,242.537L327.019,245.316C322.66,249.713 318.938,252.468 315.862,253.589C315.757,253.624 315.651,253.659 315.546,253.694C314.597,254.046 313.858,254.292 313.366,254.397C312.874,254.538 312.417,254.573 311.995,254.503C311.573,254.433 311.011,254.257 310.237,254.011C310.202,254.011 310.132,253.976 310.061,253.976C308.726,253.554 307.354,252.815 305.984,251.831C304.612,250.811 303.663,249.862 303.101,248.878C302.538,247.683 302.327,245.643 302.468,242.69C302.608,239.772 303.065,236.784 303.839,233.655C304.19,232.179 304.507,230.913 304.683,229.858C304.894,228.839 304.964,228.276 304.929,228.171C304.015,227.96 298.214,233.128 287.597,243.675L277.085,254.081L274.589,253.343C273.851,253.097 273.007,252.675 272.058,252.077C271.108,251.444 270.229,250.776 269.456,250.073C268.085,248.843 267.241,247.436 266.925,245.89C266.608,244.343 266.925,241.952 267.804,238.788C268.718,235.624 270.3,230.983 272.55,224.936C273.956,221.21 275.749,216.78 277.929,211.683C280.108,206.585 282.253,201.804 284.327,197.339C286.401,192.874 287.983,189.745 289.038,187.882C290.866,184.894 292.624,182.257 294.382,179.972C296.105,177.686 297.335,176.386 298.073,176.069C300.148,175.261 302.187,175.683 304.261,177.265C305.245,178.038 305.843,178.952 306.054,180.042C306.265,181.167 306.018,182.784 305.351,184.929C304.647,187.038 303.487,190.026 301.8,193.893C300.042,198.007 298.249,202.19 296.421,206.444C294.628,210.733 293.081,214.39 291.815,217.448C290.55,220.472 289.952,222.054 289.952,222.159C289.952,222.229 290.409,221.913 291.394,221.245C292.343,220.542 293.538,219.663 294.979,218.608C300.815,214.179 305.526,212.456 309.042,213.44C310.624,213.933 312.312,214.811 314.175,216.112C316.003,217.448 317.269,218.643 317.936,219.733C319.694,223.354 318.323,230.386 313.823,240.827C313.401,241.776 313.12,242.585 312.944,243.218C312.804,243.851 312.769,244.167 312.944,244.167C313.436,244.167 315.124,243.007 318.042,240.686C320.925,238.401 324.124,235.659 327.605,232.495L329.115,231.138L329.367,230.047C329.549,229.373 329.758,228.689 329.995,227.995C331.894,222.44 335.269,217.202 340.12,212.245C346.026,206.163 351.897,204.546 357.698,207.429C363.288,210.241 365.749,214.53 365.081,220.331C364.483,223.741 362.936,227.116 360.476,230.491C358.015,233.901 355.272,236.362 352.249,237.909C348.804,239.456 345.253,239.808 341.526,238.964L339.487,238.436L339.663,242.339C339.733,243.569 339.804,244.448 339.874,245.011C339.979,245.573 340.12,245.96 340.366,246.136C340.612,246.311 340.964,246.417 341.421,246.452C343.741,246.593 346.976,245.573 351.159,243.323C355.378,241.108 359.913,238.155 364.835,234.464L368.114,232.032L368.144,231.935C369.172,228.733 370.319,225.517 371.585,222.3C373.308,218.011 374.854,214.776 376.261,212.632C377.772,210.382 378.968,208.905 379.917,208.237C380.831,207.569 381.675,207.534 382.518,208.061C383.116,208.448 383.749,209.186 384.417,210.311C385.085,211.401 385.648,212.597 386.14,213.862C386.632,215.128 386.878,216.183 386.878,216.991C386.878,217.835 386.948,218.362 387.124,218.538C387.265,218.749 387.581,218.714 388.073,218.468C388.46,218.327 389.023,218.151 389.726,218.011C390.429,217.835 391.167,217.729 391.905,217.624C392.925,217.448 393.839,217.554 394.577,217.905C395.315,218.257 396.37,219.065 397.741,220.366C398.761,221.315 399.569,221.983 400.202,222.405C400.835,222.862 401.503,223.108 402.206,223.214C402.909,223.319 403.964,223.39 405.335,223.39C406.495,223.39 407.55,223.425 408.464,223.565C409.378,223.706 409.941,223.882 410.116,224.093C411.206,225.64 410.573,227.679 408.218,230.21C405.546,233.515 402.487,233.655 399.077,230.702C398.093,229.929 397.249,229.401 396.581,229.155C395.913,228.874 395.245,228.839 394.647,228.979C392.011,229.823 388.812,232.425 385.015,236.784C381.218,241.143 377.913,246.065 375.066,251.585C374.046,253.729 373.167,255.065 372.499,255.522C371.831,255.979 370.952,255.839 369.862,255.136C369.265,254.714 368.597,253.905 367.858,252.64C367.155,251.374 366.523,249.968 365.995,248.491C365.468,246.979 365.222,245.714 365.222,244.729C365.23,244.202 365.279,243.607 365.366,242.943L365.732,240.797ZM342.411,230.344C342.425,230.513 342.506,230.597 342.651,230.597C342.827,230.597 343.354,230.245 344.198,229.577C345.007,228.909 345.956,228.065 347.011,227.081C349.401,224.726 351.265,222.3 352.53,219.733C354.886,215.022 354.675,213.827 351.968,216.112C351.019,216.921 349.964,218.116 348.769,219.663C347.573,221.21 346.413,222.827 345.358,224.479C344.269,226.167 343.46,227.573 342.897,228.804C342.546,229.551 342.387,230.064 342.411,230.344Z" style="fill-rule:nonzero;stroke:black;stroke-width:0.28px;"/>
            <path d="M202.217,145.055C204.47,145.677 206.579,147.232 208.53,149.737C210.218,151.601 211.694,153.956 213.03,156.839C214.366,159.686 215.351,162.604 215.983,165.628C216.862,169.601 216.792,174.698 215.737,180.851C214.718,187.038 212.397,196.214 208.776,208.378C206.245,217.097 204.171,224.62 202.483,230.913C200.831,237.241 200.022,240.616 200.163,241.108C200.972,241.39 203.749,238.718 208.495,233.128C213.276,227.538 218.55,220.753 224.315,212.737C227.022,208.94 229.132,206.198 230.608,204.476C232.12,202.753 233.351,201.804 234.335,201.628C235.319,201.487 236.339,201.839 237.464,202.718C238.905,203.808 240.171,205.46 241.19,207.675C242.245,209.89 242.878,212.21 243.089,214.671C243.159,215.866 243.194,217.026 243.124,218.186C243.019,219.311 242.808,220.999 242.386,223.179C241.999,225.358 241.366,228.593 240.487,232.882C240.101,234.78 239.749,236.679 239.397,238.612C239.046,240.511 238.8,241.987 238.659,243.007L238.167,246.522L239.644,245.186C240.979,243.886 242.843,241.284 245.233,237.382C247.589,233.479 249.733,229.542 251.632,225.569C253.952,220.718 256.132,215.444 258.276,209.854C260.386,204.229 263.163,196.179 266.644,185.667C266.819,185.21 266.96,184.788 267.101,184.331C269.105,178.354 270.722,173.503 272.022,169.706C273.288,165.909 274.343,162.956 275.116,160.882C275.925,158.772 276.558,157.296 277.05,156.382C277.542,155.468 277.999,154.94 278.421,154.8C278.808,154.624 279.3,154.554 279.862,154.554C282.288,154.554 283.976,157.015 284.854,161.936C284.89,162.147 284.925,162.358 284.96,162.569C285.03,163.132 285.1,163.729 285.065,164.327C285.065,164.89 284.96,165.733 284.714,166.858C284.468,167.948 284.046,169.565 283.448,171.675C282.815,173.819 281.937,176.702 280.847,180.358C279.722,184.015 278.28,188.655 276.522,194.351C275.925,196.249 275.327,198.218 274.659,200.362C268.929,218.679 262.847,233.901 256.343,246.101C249.839,258.265 244.565,264.347 240.558,264.347C237.077,264.347 233.843,261.429 230.89,255.593C230.081,253.976 229.483,252.64 229.097,251.55C228.71,250.495 228.429,249.229 228.288,247.823C228.112,246.417 228.007,244.413 227.866,241.811L227.479,233.304L225.44,236.397C221.679,242.093 217.636,247.507 213.276,252.675C208.917,257.843 205.261,261.534 202.378,263.714C199.003,266.175 195.698,266.351 192.429,264.311C189.792,262.659 187.261,259.073 184.765,253.518C181.249,245.257 181.741,232.073 186.206,213.933C186.769,211.858 187.683,208.765 189.019,204.581C190.319,200.433 191.761,196.179 193.272,191.819C199.108,174.909 201.886,166.015 201.605,165.171C201.112,164.784 199.601,165.206 197.175,166.401C194.749,167.597 191.866,169.284 188.526,171.464C185.222,173.608 181.987,175.964 178.823,178.46C168.03,187.354 161.843,194.667 160.296,200.397C160.12,201.101 160.085,201.628 160.155,201.979C160.226,202.331 160.577,202.612 161.14,202.858C161.702,203.104 162.616,203.421 163.952,203.808C170.878,205.811 175.448,207.745 177.593,209.679C179.772,211.577 180.194,214.038 178.929,217.061C177.874,219.347 175.097,220.823 170.562,221.456C166.905,221.808 163.144,220.472 159.347,217.554C155.515,214.601 152.386,210.628 149.925,205.601C149.292,204.265 148.8,203.14 148.483,202.19C148.167,201.241 147.956,200.151 147.886,198.991C147.78,197.831 147.745,196.179 147.745,194.069C147.745,191.925 147.78,190.272 147.851,189.147C147.956,187.987 148.132,187.003 148.448,186.194C148.729,185.351 149.222,184.366 149.854,183.241C152.526,178.601 157.448,173.116 164.515,166.823C171.616,160.53 179.28,154.835 187.577,149.737C192.675,146.397 196.788,144.745 199.917,144.745C200.699,144.745 201.466,144.848 202.217,145.055Z" style="fill-rule:nonzero;stroke:black;stroke-width:0.28px;"/>
        </g>
    </g>
</svg>
